#!OML:ASF H:\Terrain\Patient Classification 1\Takeo\Monday\TakeoMonday.ASF
:FULLY-SPECIFIED
:DEGREES
71
root 9.39017 17.4709 -3.63494 -12.8645 -18.4026 5.16754
lowerback -0.605807 2.49847 1.32697
upperback -1.09727 3.32866 0.330429
thorax -0.728399 1.65394 -0.403563
lowerneck -12.7408 1.73829 -0.484673
upperneck 13.8961 2.28874 1.04175
head 6.2978 1.16812 0.618901
rclavicle -3.39922e-014 -9.54166e-015
rhumerus 66.2745 23.5835 -56.5412
rradius 55.4457
rwrist -20.4307
rhand -49.5235 42.6912
rfingers 7.12502
rthumb -22.1317 13.9379
lclavicle -3.39922e-014 -9.54166e-015
lhumerus 72.2529 -13.1023 49.0541
lradius 81.6941
lwrist 37.5663
lhand -50.2478 25.1638
lfingers 7.12502
lthumb -22.8269 53.833
rfemur 12.5819 -5.20439 17.4321
rtibia 21.0991
rfoot -22.8875 -21.1068
rtoes 0.327316
lfemur -5.10724 -2.20968 -21.0959
ltibia 18.8398
lfoot 0.703996 13.9769
ltoes -11.2517
72
root 9.38083 17.4624 -3.63471 -13.103 -18.2819 5.26079
lowerback -0.413561 2.42786 1.19464
upperback -0.993346 3.23711 0.295086
thorax -0.736292 1.6096 -0.372354
lowerneck -12.6547 1.83096 -1.03713
upperneck 13.5085 2.38426 1.91318
head 6.14028 1.25743 0.989656
rclavicle 4.81059e-014 -7.95139e-015
rhumerus 66.9781 23.2179 -56.3911
rradius 55.5527
rwrist -19.3991
rhand -51.1246 44.5534
rfingers 7.12502
rthumb -23.6681 15.9905
lclavicle 4.81059e-014 -7.95139e-015
lhumerus 72.8688 -12.5235 48.8889
lradius 81.9145
lwrist 37.3251
lhand -50.0235 23.0952
lfingers 7.12502
lthumb -22.6117 51.7908
rfemur 12.7608 -5.07485 17.4172
rtibia 21.1894
rfoot -22.978 -21.4025
rtoes -0.0431332
lfemur -5.01592 -2.1853 -21.1794
ltibia 19.0775
lfoot 0.512297 13.8867
ltoes -10.4154
73
root 9.36891 17.4636 -3.6342 -13.3122 -18.0992 5.60821
lowerback -0.391189 2.36961 0.755448
upperback -0.860767 3.15865 0.224552
thorax -0.633812 1.57425 -0.197339
lowerneck -13.2576 1.9486 -0.967569
upperneck 13.8196 2.5251 1.95713
head 6.3402 1.33417 1.01628
rclavicle -1.2921e-014 3.97569e-015
rhumerus 67.7875 22.9608 -55.8415
rradius 55.3942
rwrist -17.2207
rhand -53.4837 44.5018
rfingers 7.12502
rthumb -25.929 16.2502
lclavicle -1.2921e-014 3.97569e-015
lhumerus 73.3676 -11.9414 48.8985
lradius 82.2263
lwrist 36.9808
lhand -49.6954 21.7307
lfingers 7.12502
lthumb -22.2967 50.4644
rfemur 12.9228 -5.10801 17.0627
rtibia 21.1011
rfoot -22.9341 -21.5316
rtoes -0.360927
lfemur -5.14313 -2.22825 -21.5312
ltibia 19.4883
lfoot 0.434766 13.7863
ltoes -9.86921
74
root 9.35432 17.4622 -3.63226 -13.3863 -18.0918 5.53305
lowerback -0.381181 2.36053 0.775283
upperback -0.809179 3.14656 0.257253
thorax -0.587478 1.56852 -0.174035
lowerneck -13.959 2.00933 -0.574455
upperneck 14.6347 2.59001 1.56556
head 6.73188 1.35363 0.851563
rclavicle -2.62396e-014 -7.95139e-016
rhumerus 68.1722 22.3024 -56.6483
rradius 55.8952
rwrist -18.6888
rhand -48.9366 40.8881
rfingers 7.12502
rthumb -21.5682 12.0691
lclavicle -2.62396e-014 -7.95139e-016
lhumerus 73.8729 -11.5222 48.8409
lradius 82.4969
lwrist 36.5217
lhand -49.4503 22.1426
lfingers 7.12502
lthumb -22.0615 50.9041
rfemur 13.1342 -5.10725 17.1962
rtibia 20.9499
rfoot -22.9307 -21.5566
rtoes 0.0545156
lfemur -5.24308 -1.9911 -21.3857
ltibia 19.9097
lfoot 0.45802 13.472
ltoes -9.78714
75
root 9.34545 17.4617 -3.62473 -13.1946 -18.1733 4.89616
lowerback -0.530617 2.3187 1.43816
upperback -0.7975 3.08806 0.414735
thorax -0.466241 1.53647 -0.37507
lowerneck -14.2778 2.1009 -0.398597
upperneck 15.0448 2.68533 1.51085
head 6.92146 1.40454 0.823541
rclavicle -3.37934e-015 1.59028e-015
rhumerus 68.7029 21.9667 -57.0735
rradius 55.9184
rwrist -18.8183
rhand -49.2901 44.0263
rfingers 7.12502
rthumb -21.9076 15.2467
lclavicle -3.37934e-015 1.59028e-015
lhumerus 74.3442 -11.1039 48.5765
lradius 82.8587
lwrist 36.1913
lhand -49.6454 22.7894
lfingers 7.12502
lthumb -22.2487 51.5288
rfemur 13.2637 -5.26309 17.8638
rtibia 20.784
rfoot -22.8161 -21.5226
rtoes 0.348037
lfemur -5.42562 -1.76467 -20.6565
ltibia 20.3311
lfoot 0.260782 13.1894
ltoes -10.4306
76
root 9.33847 17.4625 -3.62073 -13.0144 -18.115 4.68943
lowerback -0.762227 2.29085 1.63618
upperback -0.824864 3.0457 0.49781
thorax -0.359607 1.51493 -0.39103
lowerneck -14.424 2.17614 -0.386896
upperneck 15.0698 2.78961 1.48832
head 6.95418 1.45356 0.827115
rclavicle -1.88845e-014 7.95139e-015
rhumerus 69.1431 21.7495 -57.1938
rradius 56.0205
rwrist -18.3681
rhand -49.6168 45.1151
rfingers 7.12502
rthumb -22.2213 16.3724
lclavicle -1.88845e-014 7.95139e-015
lhumerus 74.6844 -10.706 48.4794
lradius 83.2533
lwrist 36.2295
lhand -50.0186 22.6829
lfingers 7.12502
lthumb -22.607 51.3791
rfemur 13.2665 -5.41785 18.0682
rtibia 20.5543
rfoot -22.6746 -21.5279
rtoes 0.33905
lfemur -5.80829 -1.80079 -20.4225
ltibia 20.8397
lfoot 0.0364961 13.1395
ltoes -10.7888
77
root 9.32811 17.4598 -3.61797 -13.0205 -17.9856 4.78301
lowerback -0.874789 2.27333 1.53733
upperback -0.843786 3.02054 0.451699
thorax -0.319018 1.5029 -0.378789
lowerneck -14.4781 2.15478 -0.431136
upperneck 15.0151 2.76272 1.53203
head 6.94475 1.44218 0.845884
rclavicle 2.00773e-014 8.74653e-015
rhumerus 69.4135 21.3666 -57.3977
rradius 56.3111
rwrist -18.1038
rhand -49.4441 43.2489
rfingers 7.12502
rthumb -22.0555 14.4866
lclavicle 2.00773e-014 8.74653e-015
lhumerus 75.044 -10.401 48.3953
lradius 83.6137
lwrist 36.1165
lhand -50.2862 22.2092
lfingers 7.12502
lthumb -22.8637 50.8739
rfemur 13.3154 -5.51952 17.976
rtibia 20.4374
rfoot -22.5839 -21.6577
rtoes 0.0985419
lfemur -6.01396 -1.74576 -20.5194
ltibia 21.2358
lfoot -0.00533521 12.9836
ltoes -10.5856
78
root 9.32019 17.4578 -3.61355 -12.998 -17.9538 4.6589
lowerback -0.976981 2.23979 1.71269
upperback -0.825049 2.97218 0.464916
thorax -0.235357 1.4786 -0.458339
lowerneck -14.6622 2.10419 -0.611266
upperneck 15.1778 2.72936 1.55465
head 7.0266 1.41766 0.883657
rclavicle -7.95139e-016 2.38542e-015
rhumerus 69.857 21.0157 -57.5201
rradius 56.4084
rwrist -17.9257
rhand -49.7465 43.2221
rfingers 7.12502
rthumb -22.3458 14.4944
lclavicle -7.95139e-016 2.38542e-015
lhumerus 75.2752 -10.0601 48.2899
lradius 84.1092
lwrist 35.8209
lhand -50.4698 21.1625
lfingers 7.12502
lthumb -23.0399 49.8053
rfemur 13.297 -5.59721 18.1099
rtibia 20.532
rfoot -22.4681 -21.8439
rtoes -0.468088
lfemur -6.07028 -1.69759 -20.3732
ltibia 21.4066
lfoot -0.108429 12.9089
ltoes -9.94389
79
root 9.31384 17.455 -3.61197 -13.1413 -17.9325 4.89836
lowerback -0.949924 2.2251 1.53097
upperback -0.838068 2.95462 0.417563
thorax -0.270789 1.47025 -0.407222
lowerneck -14.8655 2.10218 -0.86313
upperneck 15.4932 2.76543 1.65346
head 7.15843 1.42876 0.967098
rclavicle 6.55989e-015 3.81667e-014
rhumerus 70.3235 20.811 -57.6056
rradius 56.4147
rwrist -17.8023
rhand -49.5097 44.8462
rfingers 7.12502
rthumb -22.1184 16.0914
lclavicle 6.55989e-015 3.81667e-014
lhumerus 75.4242 -9.76331 48.2374
lradius 84.4721
lwrist 35.5255
lhand -50.2624 20.936
lfingers 7.12502
lthumb -22.8409 49.6034
rfemur 13.3042 -5.53116 17.881
rtibia 20.6934
rfoot -22.5373 -21.9019
rtoes -0.889055
lfemur -6.05302 -1.74532 -20.5964
ltibia 21.5398
lfoot -0.298342 12.9945
ltoes -9.55918
80
root 9.30544 17.4521 -3.61201 -13.3379 -17.923 5.23218
lowerback -0.8784 2.20554 1.24421
upperback -0.908641 2.93221 0.319616
thorax -0.392619 1.45921 -0.352661
lowerneck -14.698 2.17418 -0.877958
upperneck 15.5127 2.83645 1.81717
head 7.13182 1.47698 1.02777
rclavicle -7.7526e-015 -2.54444e-014
rhumerus 70.6674 20.7245 -57.852
rradius 56.3455
rwrist -17.7884
rhand -48.9474 45.6831
rfingers 7.12502
rthumb -21.5785 16.8653
lclavicle -7.7526e-015 -2.54444e-014
lhumerus 75.6909 -9.55791 48.0716
lradius 84.5455
lwrist 34.9204
lhand -50.1258 21.6459
lfingers 7.12502
lthumb -22.7098 50.3295
rfemur 13.3642 -5.4658 17.5522
rtibia 20.8434
rfoot -22.7499 -21.7828
rtoes -0.972405
lfemur -6.06133 -1.66157 -20.9013
ltibia 21.7429
lfoot -0.386331 12.9637
ltoes -9.35338
81
root 9.29946 17.4434 -3.61174 -13.4612 -18.0714 5.14371
lowerback -0.803643 2.2215 1.47715
upperback -0.924863 2.95377 0.291266
thorax -0.437595 1.46824 -0.514758
lowerneck -14.4241 2.25354 -0.663265
upperneck 15.2924 2.88592 1.8785
head 7.01449 1.5191 1.01072
rclavicle 8.94531e-015 4.77083e-015
rhumerus 70.9952 20.5836 -58.0738
rradius 56.191
rwrist -17.71
rhand -49.0646 46.9647
rfingers 7.12502
rthumb -21.6911 18.1598
lclavicle 8.94531e-015 4.77083e-015
lhumerus 75.9763 -9.37171 47.8763
lradius 84.6846
lwrist 34.289
lhand -50.4892 22.0219
lfingers 7.12502
lthumb -23.0586 50.6624
rfemur 13.461 -5.53331 17.6175
rtibia 20.9974
rfoot -22.7501 -21.6384
rtoes -1.39785
lfemur -5.99691 -1.51852 -20.7525
ltibia 21.9884
lfoot -0.480947 12.9253
ltoes -9.08235
82
root 9.29419 17.4348 -3.6159 -13.4881 -18.1994 4.94665
lowerback -0.670827 2.30412 1.80181
upperback -0.983527 3.06612 0.296064
thorax -0.553266 1.52114 -0.697294
lowerneck -14.2837 2.28037 -0.521631
upperneck 15.2612 2.89062 1.88312
head 6.98226 1.52991 0.987084
rclavicle -4.37326e-015 -3.97569e-015
rhumerus 71.1542 20.2342 -58.1183
rradius 56.192
rwrist -17.6201
rhand -49.3862 48.5667
rfingers 7.12502
rthumb -21.9999 19.7979
lclavicle -4.37326e-015 -3.97569e-015
lhumerus 76.2378 -9.34396 48.0201
lradius 84.9408
lwrist 34.1015
lhand -50.2555 22.6108
lfingers 7.12502
lthumb -22.8343 51.2791
rfemur 13.4583 -5.64574 17.8084
rtibia 21.1047
rfoot -22.5994 -21.631
rtoes -2.17638
lfemur -6.06043 -1.43601 -20.4947
ltibia 22.3314
lfoot -0.608318 12.8645
ltoes -9.35603
83
root 9.28543 17.4356 -3.61975 -13.4426 -18.1626 4.89386
lowerback -0.590026 2.35579 1.8304
upperback -1.12574 3.13854 0.336546
thorax -0.743143 1.55462 -0.679173
lowerneck -14.2554 2.32089 -0.675584
upperneck 15.5249 2.94569 2.06514
head 7.05649 1.56377 1.07963
rclavicle -2.26615e-014 6.36111e-015
rhumerus 71.1873 19.9603 -58.1157
rradius 56.3299
rwrist -17.6102
rhand -49.2274 48.4838
rfingers 7.12502
rthumb -21.8474 19.6971
lclavicle -2.26615e-014 6.36111e-015
lhumerus 76.382 -9.32922 48.3486
lradius 85.2684
lwrist 33.918
lhand -49.1076 23.2301
lfingers 7.12502
lthumb -21.7324 52.0302
rfemur 13.3766 -5.67119 17.9083
rtibia 21.1327
rfoot -22.6657 -21.7255
rtoes -2.16944
lfemur -6.3857 -1.41771 -20.3967
ltibia 22.8022
lfoot -0.708479 12.7666
ltoes -8.64673
84
root 9.27809 17.4303 -3.61318 -13.6422 -18.2152 4.96314
lowerback -0.475971 2.41365 1.81072
upperback -1.12601 3.21851 0.360335
thorax -0.807747 1.59428 -0.649119
lowerneck -14.3088 2.34731 -0.97445
upperneck 15.6936 2.98289 2.41743
head 7.10895 1.59629 1.24954
rclavicle 2.90226e-014 2.38542e-015
rhumerus 71.3222 19.7509 -58.1265
rradius 56.399
rwrist -17.4644
rhand -49.0796 47.3908
rfingers 7.12502
rthumb -21.7055 18.5877
lclavicle 2.90226e-014 2.38542e-015
lhumerus 76.5316 -9.28071 48.3478
lradius 85.5179
lwrist 34.2545
lhand -49.2521 21.465
lfingers 7.12502
lthumb -21.8711 50.2489
rfemur 13.5859 -5.70213 17.7925
rtibia 21.1815
rfoot -22.9651 -21.5132
rtoes -1.48315
lfemur -6.40236 -1.252 -20.4246
ltibia 23.2942
lfoot -0.99342 12.6848
ltoes -7.5956
